<?xml version="1.0" standalone="no"?>
<!DOCTYPE svg PUBLIC "-//W3C//DTD SVG 20010904//EN"
 "http://www.w3.org/TR/2001/REC-SVG-20010904/DTD/svg10.dtd">
<svg version="1.0" xmlns="http://www.w3.org/2000/svg"
 width="543.000000pt" height="460.000000pt" viewBox="0 0 543.000000 460.000000"
 preserveAspectRatio="xMidYMid meet">

<g transform="translate(0.000000,460.000000) scale(0.100000,-0.100000)"
fill="#000000" stroke="none">
<path d="M2310 4504 c-354 -43 -725 -188 -1011 -396 -37 -26 -70 -48 -74 -48
-4 0 -6 43 -3 95 2 52 2 92 0 90 -10 -10 -32 -124 -32 -170 l-1 -50 -90 -78
c-50 -44 -131 -127 -182 -185 -50 -59 -93 -105 -96 -103 -12 8 -30 88 -42 180
-6 53 -15 100 -20 106 -18 19 -10 -189 11 -268 l19 -77 -43 -63 c-235 -341
-376 -804 -376 -1237 0 -445 148 -918 397 -1268 25 -35 42 -66 39 -70 -4 -3
-58 -8 -121 -10 -63 -3 -115 -8 -115 -12 0 -13 101 -21 189 -15 l86 5 60 -76
c152 -192 436 -415 695 -544 188 -94 469 -182 680 -211 125 -18 496 -18 620 0
477 68 922 291 1265 636 l101 102 74 -94 c71 -89 80 -97 195 -162 157 -89 181
-101 202 -101 10 0 -40 30 -110 67 -70 36 -145 82 -165 102 -32 31 -142 170
-165 208 -5 7 9 34 36 66 57 71 144 203 202 307 51 93 135 280 141 314 2 11
17 59 33 106 76 217 112 528 93 803 -68 966 -743 1773 -1675 2002 -253 63
-555 81 -817 49z m421 -434 c325 -32 593 -127 848 -297 127 -86 299 -245 400
-370 170 -211 295 -485 357 -783 21 -103 30 -411 15 -535 -12 -101 -17 -117
-29 -99 -34 50 -42 58 -53 47 -7 -7 -1 -24 22 -57 l33 -46 -18 -77 c-21 -90
-85 -263 -97 -263 -4 0 -12 6 -16 14 -4 8 -48 26 -98 41 -271 82 -453 182
-534 293 -47 64 -51 87 -12 75 14 -4 14 -3 1 6 -8 7 -32 21 -53 32 -22 11 -37
23 -34 25 3 3 17 -2 31 -12 15 -9 29 -15 31 -12 3 3 -17 17 -45 32 -56 31 -63
45 -22 47 16 1 20 3 10 6 -22 5 -21 2 -3 48 19 44 13 68 -27 104 l-29 26 127
135 c161 170 200 203 231 195 18 -4 23 -1 23 15 0 23 -41 37 -70 24 -40 -19
-156 -124 -258 -234 -59 -63 -111 -115 -116 -115 -5 0 -17 45 -26 100 -10 57
-27 117 -40 140 -28 51 -45 68 -35 36 5 -16 4 -21 -4 -17 -6 4 -11 14 -11 22
0 8 -12 27 -26 42 l-26 27 15 -30 c23 -47 30 -75 18 -75 -6 0 -11 5 -11 12 0
18 -43 108 -51 108 -5 0 -1 -16 7 -35 7 -19 14 -45 14 -57 0 -13 11 -45 25
-72 25 -49 25 -49 25 -17 0 21 4 30 11 25 7 -4 9 -35 8 -81 -4 -74 -3 -74 29
-95 17 -11 32 -23 32 -27 0 -19 -15 -19 -49 -1 -63 33 -62 32 -47 74 12 34 11
42 -7 80 -20 39 -21 40 -27 16 -6 -24 -7 -24 -14 8 -4 17 -11 32 -15 32 -4 0
-15 23 -25 50 -10 28 -22 50 -26 50 -5 0 3 -28 17 -62 30 -75 43 -133 16 -78
-16 35 -16 35 -23 10 l-7 -25 -8 28 c-8 29 -20 35 -28 15 -2 -7 -8 0 -12 17
-5 16 -15 36 -22 44 -12 11 -13 9 -7 -13 11 -43 -3 -29 -31 32 -14 31 -30 65
-35 75 -21 37 2 14 30 -30 31 -50 37 -52 20 -8 -7 17 -7 24 0 20 13 -8 13 7 0
39 -6 16 -17 26 -30 26 -11 0 -20 1 -20 3 0 1 5 18 10 37 18 61 50 221 50 252
0 39 -25 85 -51 93 -39 13 -55 -50 -19 -73 12 -7 20 -23 20 -39 0 -36 -50
-213 -61 -213 -4 0 -17 15 -28 34 -30 47 -71 63 -71 27 0 -11 13 -29 28 -40
17 -12 34 -37 41 -62 12 -39 11 -43 -11 -66 -23 -23 -24 -23 -71 -7 -26 9 -47
18 -47 21 0 3 10 23 22 44 34 60 10 71 -31 14 -37 -52 -51 -57 -51 -17 0 17
-10 38 -25 52 -22 20 -28 22 -51 12 -20 -10 -25 -18 -22 -40 2 -23 -1 -27 -23
-30 -19 -2 -28 2 -31 16 -4 15 -21 23 -62 33 -31 7 -64 18 -73 24 -18 13 -23
10 279 145 147 66 167 78 168 98 0 21 -3 23 -32 17 -18 -4 -128 -55 -245 -113
l-214 -106 -419 419 c-231 231 -419 424 -417 430 2 5 41 36 87 67 327 225 749
336 1131 298z m-1357 -686 c12 -30 6 -52 -18 -67 -23 -16 -24 -15 -30 21 -4
28 -2 40 11 50 22 16 30 15 37 -4z m224 -407 c314 -314 400 -406 390 -414 -21
-17 -88 -43 -112 -43 -12 0 -32 -7 -45 -17 -23 -15 -23 -17 -6 -30 28 -20 45
-16 130 28 l78 41 40 -40 40 -40 -54 -15 c-30 -9 -196 -55 -369 -102 -173 -47
-358 -99 -410 -114 -52 -16 -104 -32 -115 -35 -20 -5 150 0 268 9 54 4 58 3
35 -7 -16 -7 -28 -17 -28 -23 0 -14 32 -43 87 -78 47 -30 59 -33 66 -14 3 8
12 5 29 -10 25 -24 101 -33 112 -14 4 5 19 3 36 -6 30 -15 55 -14 183 3 77 10
82 3 39 -60 -20 -30 -45 -55 -54 -56 -9 0 -46 20 -82 45 -46 31 -66 40 -66 30
0 -14 112 -95 132 -95 18 0 6 -23 -37 -69 -40 -43 -59 -91 -37 -91 10 0 48 41
86 93 l28 38 65 -7 c75 -8 80 6 8 26 -25 7 -45 14 -45 16 0 2 28 39 62 84 l61
80 53 0 c29 0 59 3 68 6 29 11 17 -10 -57 -101 -41 -50 -72 -96 -69 -103 10
-31 43 -2 127 108 85 113 107 132 165 145 22 5 93 -62 649 -619 406 -406 621
-628 616 -636 -4 -6 -48 -39 -99 -72 -518 -342 -1171 -389 -1733 -123 -117 55
-252 139 -338 208 -63 51 -215 199 -215 209 0 5 20 18 45 30 34 17 42 25 34
35 -9 10 -19 8 -53 -12 -24 -14 -47 -25 -53 -25 -13 0 -133 162 -187 253 -142
240 -226 511 -244 792 -20 312 34 597 170 887 44 94 53 106 69 98 31 -17 44
-12 24 10 -16 17 -16 24 -6 48 17 35 100 152 109 152 4 0 188 -181 410 -403z
m1342 -363 c7 -20 9 -38 6 -41 -8 -8 -8 -7 -27 50 -13 36 -13 45 -3 36 7 -6
18 -26 24 -45z m46 -34 c9 -46 -6 -31 -28 27 -17 47 -17 47 2 27 11 -10 23
-35 26 -54z m-166 48 c0 -26 -19 -41 -71 -59 -30 -10 -57 -18 -61 -19 -5 0 -8
18 -8 39 0 40 0 40 43 44 87 8 97 7 97 -5z m82 -195 c23 -21 23 -45 -1 -67
-24 -22 -58 -7 -67 29 -12 47 31 71 68 38z m116 -13 c36 -22 38 -28 19 -54
-29 -39 -99 11 -81 58 8 21 22 20 62 -4z m-497 -30 c21 -12 25 -40 7 -58 -18
-18 -63 -14 -89 8 l-24 20 24 20 c26 22 52 25 82 10z m-246 -50 c10 -31 -4
-44 -26 -24 -14 13 -16 20 -8 31 16 18 27 16 34 -7z m785 -102 c0 -18 -3 -43
-6 -56 l-7 -23 -23 22 c-26 24 -33 74 -11 82 34 14 47 7 47 -25z m140 12 c22
-11 40 -24 40 -29 0 -18 -117 -134 -128 -127 -6 4 -9 12 -7 19 2 7 9 45 15 85
13 81 18 84 80 52z m-1089 0 c39 -21 9 -67 -36 -56 -34 9 -44 35 -20 52 23 17
30 17 56 4z m1292 -4 c23 -18 22 -21 -11 -24 -18 -1 -36 5 -47 18 -18 20 -17
20 11 20 16 0 37 -7 47 -14z m-1450 -58 c14 -22 -7 -48 -39 -48 -31 0 -43 38
-18 57 23 17 43 13 57 -9z m-433 -32 c0 -8 -4 -17 -9 -21 -12 -7 -24 12 -16
25 9 15 25 12 25 -4z m129 -5 c13 -24 -9 -45 -39 -36 -22 7 -26 25 -8 43 17
17 36 15 47 -7z m1655 -60 c9 -7 31 -13 50 -13 27 0 33 -3 29 -17 -7 -26 129
-174 175 -193 11 -4 127 -172 173 -250 34 -58 54 -71 66 -42 4 10 -20 53 -66
120 -39 57 -71 106 -71 110 0 3 25 -8 56 -25 30 -18 152 -70 271 -116 119 -47
218 -87 221 -89 12 -13 -171 -321 -187 -312 -4 3 -47 62 -95 131 -81 116 -107
143 -106 113 1 -7 41 -74 89 -148 49 -74 87 -137 84 -140 -2 -2 -191 183 -421
413 l-417 417 55 55 55 56 12 -29 c6 -15 19 -34 27 -41z m-1519 49 c9 -15 -14
-40 -35 -40 -19 0 -34 25 -24 41 7 12 51 11 59 -1z m2468 -1207 c11 -10 -13
-33 -34 -33 -18 0 -26 20 -12 33 8 9 38 9 46 0z"/>
<path d="M3012 2716 c6 -11 11 -35 10 -53 -2 -17 2 -34 8 -38 7 -4 9 2 4 21
-5 19 -4 25 5 20 14 -9 14 -5 1 29 -7 17 -7 24 0 20 6 -3 10 0 10 8 0 9 -10
15 -25 15 -22 0 -23 -3 -13 -22z"/>
<path d="M3086 2700 c3 -19 15 -47 25 -62 11 -14 19 -29 19 -32 0 -3 9 -20 20
-38 l21 -33 -7 30 c-4 17 -11 35 -16 42 -5 7 -4 13 3 15 8 3 9 9 5 17 -7 11
-10 11 -17 0 -6 -11 -9 -11 -13 1 -7 24 -16 44 -32 70 -15 25 -15 25 -8 -10z"/>
<path d="M3062 2661 c-1 -35 6 -63 19 -84 23 -39 24 -32 3 18 -8 20 -13 49
-10 64 3 14 2 32 -3 40 -6 9 -9 -3 -9 -38z"/>
<path d="M3826 2591 c-4 -6 37 -66 92 -133 134 -168 262 -338 262 -349 0 -5 9
-9 20 -9 31 0 24 18 -32 79 -29 32 -101 124 -160 207 -113 157 -171 223 -182
205z"/>
<path d="M3995 2210 c-13 -6 -15 -9 -5 -9 8 0 22 4 30 9 18 12 2 12 -25 0z"/>
<path d="M3810 2150 c-18 -12 -2 -12 25 0 13 6 15 9 5 9 -8 0 -22 -4 -30 -9z"/>
<path d="M3583 2123 c26 -2 68 -2 95 0 26 2 4 3 -48 3 -52 0 -74 -1 -47 -3z"/>
<path d="M3540 2046 c0 -2 7 -7 16 -10 8 -3 12 -2 9 4 -6 10 -25 14 -25 6z"/>
<path d="M3615 2010 c22 -11 47 -19 55 -19 17 0 -33 23 -71 33 -13 3 -6 -3 16
-14z"/>
<path d="M3700 1980 c8 -5 20 -10 25 -10 6 0 3 5 -5 10 -8 5 -19 10 -25 10 -5
0 -3 -5 5 -10z"/>
<path d="M3745 1964 c6 -5 23 -20 40 -34 29 -24 29 -24 10 -2 -11 13 -29 28
-40 34 -11 6 -15 6 -10 2z"/>
<path d="M1111 3098 c-5 -13 -6 -26 -2 -30 25 -25 519 -439 581 -487 60 -46
81 -57 89 -47 8 9 -23 41 -122 127 -73 63 -221 192 -329 287 -109 95 -200 172
-203 172 -3 0 -10 -10 -14 -22z"/>
<path d="M1700 1598 c-162 -209 -240 -302 -271 -321 -32 -21 -37 -38 -14 -57
16 -13 14 -16 181 175 122 139 149 175 183 242 32 64 37 83 23 83 -4 0 -50
-55 -102 -122z"/>
<path d="M5335 1578 c-63 -17 -96 -19 -327 -15 -142 2 -258 0 -258 -4 0 -18
407 -41 508 -29 76 10 162 41 162 59 0 13 4 13 -85 -11z"/>
</g>
</svg>
